<svg width="30" height="30" viewBox="0 0 30 30" fill="none" xmlns="http://www.w3.org/2000/svg">
<g clip-path="url(#clip0_2_45)">
<path d="M29.8167 8.08972C29.6302 7.81754 29.3799 7.68145 29.0658 7.68145H9.07017L7.53884 2.32863C7.40141 1.84476 7.21491 1.43145 6.97932 1.08871C6.74373 0.745968 6.49342 0.504032 6.22838 0.362903C5.96334 0.221774 5.73266 0.126008 5.53634 0.0756048C5.34001 0.0252016 5.14369 0 4.94736 0H0.912907C0.657685 0 0.441729 0.0907258 0.265037 0.272177C0.0883458 0.453629 0 0.685484 0 0.967742C0 1.12903 0.0392648 1.28528 0.117794 1.43649C0.196324 1.5877 0.30921 1.70363 0.456453 1.78427C0.603696 1.86492 0.755847 1.90524 0.912907 1.90524H4.94736C5.02589 1.90524 5.09952 1.91532 5.16823 1.93548C5.23694 1.95565 5.3302 2.04133 5.44799 2.19254C5.56579 2.34375 5.66395 2.57056 5.74248 2.87298L10.9549 22.5302C10.9941 22.6512 11.0579 22.7671 11.1463 22.878C11.2346 22.9889 11.3377 23.0746 11.4555 23.1351C11.5733 23.1956 11.7009 23.2258 11.8383 23.2258H24.5601C24.7565 23.2258 24.9381 23.1653 25.1049 23.0444C25.2718 22.9234 25.3847 22.7722 25.4436 22.5907L29.9492 8.98185C30.0474 8.65927 30.0032 8.36189 29.8167 8.08972ZM23.9123 21.2903H12.5746L9.5708 9.61693H27.7111L23.9123 21.2903ZM22.057 25.1613C21.4091 25.1613 20.8545 25.3982 20.3932 25.872C19.9318 26.3458 19.7011 26.9153 19.7011 27.5806C19.7011 28.246 19.9318 28.8155 20.3932 29.2893C20.8545 29.7631 21.4091 30 22.057 30C22.7049 30 23.2595 29.7631 23.7208 29.2893C24.1822 28.8155 24.4129 28.246 24.4129 27.5806C24.4129 26.9153 24.1822 26.3458 23.7208 25.872C23.2595 25.3982 22.7049 25.1613 22.057 25.1613ZM13.5758 25.1613C13.1439 25.1613 12.7463 25.2722 12.3831 25.494C12.0199 25.7157 11.7353 26.0081 11.5291 26.371C11.323 26.7339 11.2199 27.1371 11.2199 27.5806C11.2199 28.246 11.4506 28.8155 11.912 29.2893C12.3733 29.7631 12.9279 30 13.5758 30C14.2237 30 14.7783 29.7631 15.2397 29.2893C15.701 28.8155 15.9317 28.246 15.9317 27.5806C15.9317 27.4194 15.917 27.2581 15.8875 27.0968C15.8581 26.9355 15.8139 26.7843 15.755 26.6431C15.6961 26.502 15.6225 26.3659 15.5341 26.2349C15.4458 26.1038 15.3476 25.9829 15.2397 25.872C15.1317 25.7611 15.0139 25.6603 14.8863 25.5696C14.7587 25.4788 14.6261 25.4032 14.4887 25.3427C14.3513 25.2823 14.204 25.2369 14.047 25.2067C13.8899 25.1764 13.7329 25.1613 13.5758 25.1613Z" fill="#0D0D0D"/>
</g>
<defs>
<clipPath id="clip0_2_45">
<rect width="30" height="30" fill="white"/>
</clipPath>
</defs>
</svg>
