<svg width="30" height="31" viewBox="0 0 30 31" fill="none" xmlns="http://www.w3.org/2000/svg">
<path d="M26.1796 23.8081C26.1675 24.2538 26.0688 24.6924 25.8895 25.098C25.7101 25.5035 25.4537 25.8677 25.1356 26.1689C24.8174 26.4701 24.4439 26.7022 24.0372 26.8513C23.6306 27.0005 23.1991 27.0637 22.7684 27.0372C20.0771 27.0527 17.3846 27.0372 14.6934 27.0372C14.5276 27.0372 14.3686 26.9692 14.2514 26.8481C14.1342 26.727 14.0684 26.5627 14.0684 26.3914C14.0684 26.2201 14.1342 26.0558 14.2514 25.9347C14.3686 25.8136 14.5276 25.7456 14.6934 25.7456C17.4434 25.7456 20.1934 25.7869 22.9434 25.7456C24.3271 25.7249 24.9296 24.6502 24.9296 23.3715V7.27215C24.9391 6.86565 24.8282 6.46585 24.6117 6.12628C24.3952 5.78672 24.0835 5.52358 23.7184 5.37211C23.2868 5.25051 22.8377 5.20897 22.3921 5.2494H14.6934C14.5276 5.2494 14.3686 5.18136 14.2514 5.06024C14.1342 4.93912 14.0684 4.77485 14.0684 4.60357C14.0684 4.43228 14.1342 4.26801 14.2514 4.14689C14.3686 4.02577 14.5276 3.95773 14.6934 3.95773C17.4746 3.95773 20.2746 3.84794 23.0534 3.95773C23.4788 3.96867 23.8978 4.06697 24.286 4.2469C24.6743 4.42683 25.0241 4.68479 25.3149 5.00576C25.6057 5.32673 25.8319 5.7043 25.9801 6.11646C26.1283 6.52862 26.1957 6.96714 26.1784 7.40648L26.1796 23.8081Z" fill="white"/>
<path d="M19.7427 15.9572C19.8482 15.8507 19.91 15.7064 19.9152 15.5542C19.919 15.5363 19.9215 15.5182 19.9227 15.4999C19.9215 15.4821 19.919 15.4644 19.9152 15.447C19.9108 15.2941 19.8489 15.1491 19.7427 15.0427L15.1565 10.3048C15.0386 10.1872 14.8807 10.1221 14.7169 10.1236C14.553 10.125 14.3962 10.193 14.2803 10.3127C14.1645 10.4324 14.0987 10.5944 14.0973 10.7638C14.0959 10.9331 14.1589 11.0962 14.2727 11.218L17.7927 14.8541H4.36523C4.19947 14.8541 4.0405 14.9221 3.92329 15.0432C3.80608 15.1644 3.74023 15.3286 3.74023 15.4999C3.74023 15.6712 3.80608 15.8355 3.92329 15.9566C4.0405 16.0777 4.19947 16.1457 4.36523 16.1457H17.7927L14.2727 19.7818C14.1589 19.9036 14.0959 20.0667 14.0973 20.2361C14.0987 20.4054 14.1645 20.5674 14.2803 20.6871C14.3962 20.8069 14.553 20.8748 14.7169 20.8763C14.8807 20.8777 15.0386 20.8126 15.1565 20.695L19.7427 15.9572Z" fill="white"/>
</svg>
